<svg xmlns="http://www.w3.org/2000/svg" width="512" height="512" style="overflow: visible;" viewBox="0 0 512 512" data-svgdocument="" id="_INPiwGnd_e5RR9Zb81s-5" class="fl-svgdocument" x="0" y="0" xmlns:xlink="http://www.w3.org/1999/xlink"><defs id="_2nvYjo1IeoJTQiHgcgJEZ" transform="matrix(1.001461767228707, 0, 0, 1.001461767228707, -2.1121317595648677, 1.4512810092401378)" data-uid="o_ekd3dki2e_6"></defs><path id="_tTA7DCxqDTpthPLkKTrK0" stroke="none" fill="#094169" transform="matrix(1.1616603191857664, 0, 0, 1.6040602809078766, 152.65083713401842, 48.80203014045394)" stroke-width="1" data-type="rect" data-x="-0.013" data-y="0" data-width="176.769" data-height="176.769" d="M-0.013,0H176.756,V176.769,H-0.013,Z" data-uid="o_ekd3dki2e_7"></path><g id="_YA-_ZXGxO0xOL456hG1rW" transform="matrix(0.813687693223128, 0, 0, 0.813687693223128, 47.89058640781321, 48.80203014045394)" data-uid="o_ekd3dki2e_8"><path id="_XDWb3lL88xY5nkhpwJkre" stroke="none" fill="#ffffff" transform="matrix(3.2032406330108643, 0, 0, 3.2032406330108643, 96.51093292236328, 5.591274261474609)" stroke-width="1" data-type="polygon" d="M43.8 74.6L48.7 75.6L48.7 54.1L43.8 51.7Z" data-uid="o_ekd3dki2e_9"></path><path id="_JKoeLQqOdKd3u-WF_n6DC" stroke="none" fill="#ffffff" transform="matrix(3.2032406330108643, 0, 0, 3.2032406330108643, 96.51093292236328, 4.629624843597412)" stroke-width="1" data-type="polygon" d="M43.8 96.4L48.7 96.2L48.7 84.1L43.8 83.5Z" data-uid="o_ekd3dki2e_10"></path><path id="_UEyWOBgTKF57ZcQ-bobwh" stroke="none" fill="#ffffff" transform="matrix(3.2032406330108643, 0, 0, 3.2032406330108643, 96.51093292236328, 5.590488433837891)" stroke-width="1" data-type="polygon" d="M43.8 81.5L48.7 82.1L48.7 77.7L43.8 76.7Z" data-uid="o_ekd3dki2e_11"></path><path id="_32N0h1AEMeMTfUNyWauV5" stroke="none" fill="#ffffff" transform="matrix(3.2032406330108643, 0, 0, 3.2032406330108643, 96.83135223388672, 7.513018608093262)" stroke-width="1" data-type="polygon" d="M32.2 7L41.8 15L41.8 11.4L32.2 3.1Z" data-uid="o_ekd3dki2e_12"></path><path id="_L4yzauyf8LtATWCjH-Jzg" stroke="none" fill="#ffffff" transform="matrix(3.2032406330108643, 0, 0, 3.2032406330108643, 96.83135223388672, 5.591172695159912)" stroke-width="1" data-type="polygon" d="M32.2 35.9L41.8 41.4L41.8 24.3L32.2 17.2Z" data-uid="o_ekd3dki2e_13"></path><path id="_Ip6p5om2tVgE4OQuci_zv" stroke="none" fill="#ffffff" transform="matrix(3.2032406330108643, 0, 0, 3.2032406330108643, 96.51093292236328, 7.513216495513916)" stroke-width="1" data-type="polygon" d="M43.8 16.7L48.7 20.9L48.7 17.4L43.8 13.1Z" data-uid="o_ekd3dki2e_14"></path><path id="_VGSfONZ5aspmkwvPoMSit" stroke="none" fill="#ffffff" transform="matrix(3.2032406330108643, 0, 0, 3.2032406330108643, 96.1897201538086, 6.552046775817871)" stroke-width="1" data-type="polygon" d="M50.7 16.5L50.7 96.1L53.7 95.9L53.7 6.4L48.4 14.5Z" data-uid="o_ekd3dki2e_15"></path><path id="_IkSSt_2Mh99m0HbyEWXYw" stroke="none" fill="#ffffff" transform="matrix(3.2032406330108643, 0, 0, 3.2032406330108643, 96.51093292236328, 6.552242755889893)" stroke-width="1" data-type="polygon" d="M43.8 23.3L48.7 26.9L48.7 23.6L43.8 19.4Z" data-uid="o_ekd3dki2e_16"></path><path id="_btlyrA8Dedi9xdJRqZd3r" stroke="none" fill="#ffffff" transform="matrix(3.2032406330108643, 0, 0, 3.2032406330108643, 96.51093292236328, 6.55215311050415)" stroke-width="1" data-type="polygon" d="M43.8 49.5L48.7 51.8L48.7 47.8L43.8 44.9Z" data-uid="o_ekd3dki2e_17"></path><path id="_Ewy5mGskBsKcLHFoHETDI" stroke="none" fill="#ffffff" transform="matrix(3.2032406330108643, 0, 0, 3.2032406330108643, 96.51093292236328, 5.270945072174072)" stroke-width="1" data-type="polygon" d="M43.8 42.6L48.7 45.5L48.7 29.4L43.8 25.8Z" data-uid="o_ekd3dki2e_18"></path><path id="_MKrcqyNpMGooGN8OKpH7h" stroke="none" fill="#ffffff" transform="matrix(3.2032406330108643, 0, 0, 3.2032406330108643, 96.83135223388672, 4.309876441955566)" stroke-width="1" data-type="polygon" d="M32.2 14.8L41.8 21.8L41.8 17.7L32.2 9.6Z" data-uid="o_ekd3dki2e_19"></path><path id="_McWfmmu18CfahKPOcLcfe" stroke="none" fill="#ffffff" transform="matrix(3.2032406330108643, 0, 0, 3.2032406330108643, 94.58936309814453, 6.551360130310059)" stroke-width="1" data-type="polygon" d="M27.4 81.1L30.2 80.3L30.2 74.9L27.4 76.6Z" data-uid="o_ekd3dki2e_20"></path><path id="_SeJ59NQZhnEXk5T3Vh-wq" stroke="none" fill="#ffffff" transform="matrix(3.2032406330108643, 0, 0, 3.2032406330108643, 94.58936309814453, 4.950129985809326)" stroke-width="1" data-type="polygon" d="M27.4 74.3L30.2 72.5L30.2 47.4L27.4 51.6Z" data-uid="o_ekd3dki2e_21"></path><path id="_u5TVpFawIL_uf9x9Z6fWd" d="M23.7,95.4l1.6,0.3V26.5c0-0.1,0-0.2,1.4-4l-3.1-2.1V95.4z" stroke="none" fill="#ffffff" transform="matrix(3.2032406330108643, 0, 0, 3.2032406330108643, 95.54984283447266, 6.551458835601807)" stroke-width="1" data-uid="o_ekd3dki2e_22"></path><path id="_L6GxXTgr-p9RlZSjfISCg" stroke="none" fill="#ffffff" transform="matrix(3.2032406330108643, 0, 0, 3.2032406330108643, 94.58936309814453, 5.270256042480469)" stroke-width="1" data-type="polygon" d="M27.4 96.1L30.2 96.7L30.2 82.3L27.4 83.2Z" data-uid="o_ekd3dki2e_23"></path><path id="_inaklgSQHA7Z2WyC-UB6j" stroke="none" fill="#ffffff" transform="matrix(3.2032406330108643, 0, 0, 3.2032406330108643, 94.58936309814453, 4.309875011444092)" stroke-width="1" data-type="polygon" d="M27.4 48.1L30.2 43.9L30.2 39.6L27.4 44.5Z" data-uid="o_ekd3dki2e_24"></path><path id="_ObD40ojDDhRr2TaWEkXT3" stroke="none" fill="#ffffff" transform="matrix(3.2032406330108643, 0, 0, 3.2032406330108643, 96.83135223388672, 5.591176986694336)" stroke-width="1" data-type="polygon" d="M32.2 44L41.8 48.5L41.8 43.8L32.2 38.2Z" data-uid="o_ekd3dki2e_25"></path><path id="_Z7y0paRyXb3DIbGIsNCDm" stroke="none" fill="#ffffff" transform="matrix(3.2032406330108643, 0, 0, 3.2032406330108643, 96.83135223388672, 3.6701183319091797)" stroke-width="1" data-type="polygon" d="M32.2 80L41.8 81.3L41.8 76.3L32.2 74.3Z" data-uid="o_ekd3dki2e_26"></path><path id="_SATNV0G1cO-cXwYfzXNZ5" stroke="none" fill="#ffffff" transform="matrix(3.2032406330108643, 0, 0, 3.2032406330108643, 96.83135223388672, 5.590776443481445)" stroke-width="1" data-type="polygon" d="M32.2 72.3L41.8 74.2L41.8 50.7L32.2 46.2Z" data-uid="o_ekd3dki2e_27"></path><path id="_oTsJ7pSU0Z60Vid9uEB_6" d="M27.4,40.5l2.9-4.9V19c-1.2,3.2-2.6,6.8-2.9,7.6V40.5z" stroke="none" fill="#ffffff" transform="matrix(3.2032406330108643, 0, 0, 3.2032406330108643, 94.58936309814453, 4.630101203918457)" stroke-width="1" data-uid="o_ekd3dki2e_28"></path><path id="_-Ls4co3iBq-uRBK7jvG6P" stroke="none" fill="#ffffff" transform="matrix(3.2032406330108643, 0, 0, 3.2032406330108643, 96.83135223388672, 5.9109039306640625)" stroke-width="1" data-type="polygon" d="M32.2 96.9L41.8 96.5L41.8 83.3L32.2 82.1Z" data-uid="o_ekd3dki2e_29"></path><path id="_gn8kv4bMK4LC5574RyJjy" stroke="none" fill="#ffffff" transform="matrix(3.2032406330108643, 0, 0, 3.2032406330108643, 96.83163452148438, 3.3483283519744873)" stroke-width="1" data-type="polygon" d="M55.7 95.9L60.6 95.6L60.6 84.6L55.7 83.9Z" data-uid="o_ekd3dki2e_30"></path><path id="_fdD-eO9MPFnfkcWyDIuGd" stroke="none" fill="#ffffff" transform="matrix(3.2032406330108643, 0, 0, 3.2032406330108643, 94.5877914428711, 6.231132984161377)" stroke-width="1" data-type="polygon" d="M68.4 95.2L72.7 95L72.7 84.4L68.4 83.5Z" data-uid="o_ekd3dki2e_31"></path><path id="_JBVhcnOz55QNCWyFJM0yq" stroke="none" fill="#ffffff" transform="matrix(3.2032406330108643, 0, 0, 3.2032406330108643, 93.94742584228516, 3.348611354827881)" stroke-width="1" data-type="polygon" d="M71.1 61.8L72.7 62.5L72.7 60.3L71.1 59.4Z" data-uid="o_ekd3dki2e_32"></path><path id="_-HeibE4JIDD07KwDk-19n" stroke="none" fill="#ffffff" transform="matrix(3.2032406330108643, 0, 0, 3.2032406330108643, 97.15117645263672, 5.911108493804932)" stroke-width="1" data-type="polygon" d="M65.4 61.4L62.6 60.1L62.6 80.4L65.4 80.9Z" data-uid="o_ekd3dki2e_33"></path><path id="_P0ULuBlU1CSMKoKypgjor" stroke="none" fill="#ffffff" transform="matrix(3.2032406330108643, 0, 0, 3.2032406330108643, 95.22993469238281, 5.911595821380615)" stroke-width="1" data-type="polygon" d="M69.1 81.6L69.1 31.6L65.7 33.7L67.4 35.2L67.4 81.3Z" data-uid="o_ekd3dki2e_34"></path><path id="_0GEPO1ewSD7FUDorPJXnL" stroke="none" fill="#ffffff" transform="matrix(3.2032406330108643, 0, 0, 3.2032406330108643, 95.54966735839844, 3.3480324745178223)" stroke-width="1" data-type="polygon" d="M62.6 95.5L66.4 95.3L66.4 83.2L62.6 82.4Z" data-uid="o_ekd3dki2e_35"></path><path id="_u-BYPSYQfkhiGYhgksrBb" stroke="none" fill="#ffffff" transform="matrix(3.2032406330108643, 0, 0, 3.2032406330108643, 93.94742584228516, 6.232026100158691)" stroke-width="1" data-type="polygon" d="M71.1 82L72.7 82.4L72.7 64.7L71.1 64Z" data-uid="o_ekd3dki2e_36"></path><path id="_bxw3kJAx1Q9FCRHlKmaAJ" stroke="none" fill="#ffffff" transform="matrix(3.2032406330108643, 0, 0, 3.2032406330108643, 93.94742584228516, 7.513015270233154)" stroke-width="1" data-type="polygon" d="M71.1 57.1L72.7 58L72.7 47.4L71.1 46.1Z" data-uid="o_ekd3dki2e_37"></path><path id="_wI9qOic2_as3-Y_yQ_Xke" stroke="none" fill="#ffffff" transform="matrix(3.2032406330108643, 0, 0, 3.2032406330108643, 93.94742584228516, 4.309779644012451)" stroke-width="1" data-type="polygon" d="M71.1 43.5L72.7 44.8L72.7 42.3L71.1 41.1Z" data-uid="o_ekd3dki2e_38"></path><path id="_IHvXN6MiXx18U0R39JKqm" stroke="none" fill="#ffffff" transform="matrix(3.2032406330108643, 0, 0, 3.2032406330108643, 94.26835632324219, 4.951212406158447)" stroke-width="1" data-type="polygon" d="M74.7 94.9L76.3 94.8L76.3 37.9L73 40L74.7 41.4Z" data-uid="o_ekd3dki2e_39"></path><path id="_FbQlec-eE5-P50D-4DscG" stroke="none" fill="#ffffff" transform="matrix(3.2032406330108643, 0, 0, 3.2032406330108643, 96.83163452148438, 4.310565948486328)" stroke-width="1" data-type="polygon" d="M55.7 81.9L60.6 82.6L60.6 72.5L55.7 71.1Z" data-uid="o_ekd3dki2e_40"></path><path id="_5DKBz2JW9wIl8if73iMwa" stroke="none" fill="#ffffff" transform="matrix(3.2032406330108643, 0, 0, 3.2032406330108643, 96.83163452148438, 5.270843505859375)" stroke-width="1" data-type="polygon" d="M55.7 56.4L60.6 58.4L60.6 49L55.7 46.3Z" data-uid="o_ekd3dki2e_41"></path><path id="_XTL866eE32BshDWlowDx5" stroke="none" fill="#ffffff" transform="matrix(3.2032406330108643, 0, 0, 3.2032406330108643, 96.83163452148438, 7.513117790222168)" stroke-width="1" data-type="polygon" d="M55.7 31.1L60.6 34.5L60.6 25.7L55.7 21.6Z" data-uid="o_ekd3dki2e_42"></path><path id="_k_4EOfjtlMbtli1G0kxs4" stroke="none" fill="#ffffff" transform="matrix(3.2032406330108643, 0, 0, 3.2032406330108643, 96.83163452148438, 6.231719970703125)" stroke-width="1" data-type="polygon" d="M55.7 44L60.6 46.7L60.6 36.9L55.7 33.5Z" data-uid="o_ekd3dki2e_43"></path><path id="_z6l8vfwHF7fLBL91FDZbf" stroke="none" fill="#ffffff" transform="matrix(3.2032406330108643, 0, 0, 3.2032406330108643, 96.83163452148438, 5.911790370941162)" stroke-width="1" data-type="polygon" d="M55.7 69L60.6 70.4L60.6 60.6L55.7 58.6Z" data-uid="o_ekd3dki2e_44"></path><path id="_WklDbHBXHwj_O8sof831d" stroke="none" fill="#ffffff" transform="matrix(3.2032406330108643, 0, 0, 3.2032406330108643, 97.15117645263672, 5.270856857299805)" stroke-width="1" data-type="polygon" d="M65.4 55.9L62.6 54.3L62.6 57.9L65.4 59.2Z" data-uid="o_ekd3dki2e_45"></path><path id="_nZcYteWSrasaJ1hjKfTAN" stroke="none" fill="#ffffff" transform="matrix(3.2032406330108643, 0, 0, 3.2032406330108643, 97.15117645263672, 4.309778213500977)" stroke-width="1" data-type="polygon" d="M65.4 42.1L62.6 40.1L62.6 51.9L65.4 53.6Z" data-uid="o_ekd3dki2e_46"></path><path id="_X0qigHA8FvPpTOJBtN220" stroke="none" fill="#ffffff" transform="matrix(3.2032406330108643, 0, 0, 3.2032406330108643, 96.83163452148438, 4.950424671173096)" stroke-width="1" data-type="polygon" d="M55.7 19L60.6 23.1L60.6 18.4L55.7 13.9Z" data-uid="o_ekd3dki2e_47"></path><path id="_IKcSOnUo6GRCy0vhYWx1B" stroke="none" fill="#ffffff" transform="matrix(3.2032406330108643, 0, 0, 3.2032406330108643, 97.15117645263672, 5.591072082519531)" stroke-width="1" data-type="polygon" d="M65.4 36.1L62.6 33.7L62.6 37.6L65.4 39.6Z" data-uid="o_ekd3dki2e_48"></path></g><path id="_C4_bGFwX-B81BWeboQNQi" stroke="none" fill="#ffffff" transform="matrix(2.6064376572604333, 0, 0, 2.6064376572604333, 98.04988290792438, 52.83021355627142)" stroke-width="1" data-type="polygon" d="M60.6 15.6L60.6 11.4L58.4 13.6Z" data-uid="o_ekd3dki2e_49"></path><path text="PIX" text-anchor="middle" font-size="100" letter-spacing="0" side="left" offset="0.5" dx="0" dy="0" space="preserve" href="" font-family="Montserrat" font-scale="contain" transform="matrix(0.6246335774357477, 0, 0, 0.6246335774357477, 254.40718247130843, 392.47987779151504)" x="0" y="0" fill="#094169" data-fl-textpath="" id="_JVMNtfccSJ263-RqWKuL0" data-uid="o_ekd3dki2e_50" d="M-45.70000000000001-70Q-32.30000000000001-70 -24.70000000000001-63.6Q-17.10000000000001-57.2 -17.10000000000001-46L-17.10000000000001-46Q-17.10000000000001-34.8 -24.70000000000001-28.45Q-32.30000000000001-22.1 -45.70000000000001-22.1L-45.70000000000001-22.1L-64.50000000000001-22.1L-64.50000000000001 0L-71.9 0L-71.9-70L-45.70000000000001-70ZM-45.90000000000001-28.6Q-35.500000000000014-28.6 -30.000000000000014-33.15Q-24.500000000000014-37.7 -24.500000000000014-46L-24.500000000000014-46Q-24.500000000000014-54.5 -30.000000000000014-59.05Q-35.500000000000014-63.6 -45.90000000000001-63.6L-45.90000000000001-63.6L-64.50000000000001-63.6L-64.50000000000001-28.6L-45.90000000000001-28.6ZM-1.1000000000000139 0L-1.1000000000000139-70L 6.2999999999999865-70L 6.2999999999999865 0L-1.1000000000000139 0ZM 81.6 0L 72.99999999999999 0L 50.39999999999999-30.8L 27.899999999999988 0L 19.399999999999988 0L 45.999999999999986-36L 21.099999999999987-70L 29.599999999999987-70L 50.69999999999999-41.4L 71.69999999999999-70L 79.69999999999999-70L 54.89999999999999-36.2L 81.6 0Z"></path><path text="Software" text-anchor="middle" font-size="100" letter-spacing="0" side="left" offset="0.5" dx="0" dy="0" space="preserve" href="" font-family="Montserrat" font-scale="contain" transform="matrix(0.6246335774357477, 0, 0, 0.6246335774357477, 254.40718247130843, 463.6876832112821)" x="0" y="0" fill="#094169" data-fl-textpath="" id="_qqUQT8wckCNa7mH83-7m5" data-uid="o_ekd3dki2e_51" d="M-190.40000000000003 0.6Q-198.20000000000002 0.6 -205.35000000000002-1.9Q-212.50000000000003-4.4 -216.40000000000003-8.5L-216.40000000000003-8.5L-213.50000000000003-14.2Q-209.70000000000002-10.4 -203.40000000000003-8.05Q-197.10000000000002-5.7 -190.40000000000003-5.7L-190.40000000000003-5.7Q-181.00000000000003-5.7 -176.3-9.15Q-171.60000000000002-12.6 -171.60000000000002-18.1L-171.60000000000002-18.1Q-171.60000000000002-22.3 -174.15000000000003-24.8Q-176.70000000000002-27.3 -180.40000000000003-28.65Q-184.10000000000002-30 -190.70000000000002-31.6L-190.70000000000002-31.6Q-198.60000000000002-33.6 -203.3-35.45Q-208.00000000000003-37.3 -211.35000000000002-41.1Q-214.70000000000002-44.9 -214.70000000000002-51.4L-214.70000000000002-51.4Q-214.70000000000002-56.7 -211.90000000000003-61.05Q-209.10000000000002-65.4 -203.3-68Q-197.50000000000003-70.6 -188.90000000000003-70.6L-188.90000000000003-70.6Q-182.90000000000003-70.6 -177.15000000000003-68.95Q-171.40000000000003-67.3 -167.20000000000002-64.4L-167.20000000000002-64.4L-169.70000000000002-58.5Q-174.10000000000002-61.4 -179.10000000000002-62.85Q-184.10000000000002-64.3 -188.90000000000003-64.3L-188.90000000000003-64.3Q-198.10000000000002-64.3 -202.75000000000003-60.75Q-207.40000000000003-57.2 -207.40000000000003-51.6L-207.40000000000003-51.6Q-207.40000000000003-47.4 -204.85000000000002-44.85Q-202.3-42.3 -198.45000000000002-40.95Q-194.60000000000002-39.6 -188.10000000000002-38L-188.10000000000002-38Q-180.40000000000003-36.1 -175.65000000000003-34.25Q-170.90000000000003-32.4 -167.60000000000002-28.65Q-164.3-24.9 -164.3-18.5L-164.3-18.5Q-164.3-13.2 -167.15000000000003-8.85Q-170.00000000000003-4.5 -175.90000000000003-1.95Q-181.8 0.6 -190.40000000000003 0.6L-190.40000000000003 0.6ZM-128.20000000000002 0.5Q-135.8 0.5 -141.90000000000003-2.95Q-148.00000000000003-6.4 -151.50000000000003-12.5Q-155.00000000000003-18.6 -155.00000000000003-26.3L-155.00000000000003-26.3Q-155.00000000000003-34 -151.50000000000003-40.1Q-148.00000000000003-46.2 -141.90000000000003-49.6Q-135.8-53 -128.20000000000002-53L-128.20000000000002-53Q-120.60000000000002-53 -114.50000000000003-49.6Q-108.40000000000002-46.2 -104.95000000000002-40.1Q-101.50000000000003-34 -101.50000000000003-26.3L-101.50000000000003-26.3Q-101.50000000000003-18.6 -104.95000000000002-12.5Q-108.40000000000002-6.4 -114.50000000000003-2.95Q-120.60000000000002 0.5 -128.20000000000002 0.5L-128.20000000000002 0.5ZM-128.20000000000002-5.8Q-122.60000000000002-5.8 -118.15000000000002-8.35Q-113.70000000000002-10.9 -111.20000000000002-15.6Q-108.70000000000002-20.3 -108.70000000000002-26.3L-108.70000000000002-26.3Q-108.70000000000002-32.3 -111.20000000000002-37Q-113.70000000000002-41.7 -118.15000000000002-44.25Q-122.60000000000002-46.8 -128.20000000000002-46.8L-128.20000000000002-46.8Q-133.8-46.8 -138.25000000000003-44.25Q-142.70000000000002-41.7 -145.25000000000003-37Q-147.8-32.3 -147.8-26.3L-147.8-26.3Q-147.8-20.3 -145.25000000000003-15.6Q-142.70000000000002-10.9 -138.25000000000003-8.35Q-133.8-5.8 -128.20000000000002-5.8L-128.20000000000002-5.8ZM-69.60000000000002-68.7Q-74.20000000000002-68.7 -76.55000000000001-66.2Q-78.90000000000002-63.7 -78.90000000000002-58.8L-78.90000000000002-58.8L-78.90000000000002-52.6L-62.70000000000002-52.6L-62.70000000000002-46.6L-78.70000000000002-46.6L-78.70000000000002 0L-85.80000000000003 0L-85.80000000000003-46.6L-95.20000000000002-46.6L-95.20000000000002-52.6L-85.80000000000003-52.6L-85.80000000000003-59.1Q-85.80000000000003-66.3 -81.65000000000002-70.5Q-77.50000000000003-74.7 -69.90000000000002-74.7L-69.90000000000002-74.7Q-66.90000000000002-74.7 -64.10000000000002-73.85Q-61.30000000000002-73 -59.40000000000002-71.4L-59.40000000000002-71.4L-61.80000000000002-66.1Q-64.90000000000002-68.7 -69.60000000000002-68.7L-69.60000000000002-68.7ZM-27.900000000000013-8.3L-25.400000000000013-3.2Q-27.400000000000013-1.4 -30.350000000000016-0.45Q-33.30000000000001 0.5 -36.500000000000014 0.5L-36.500000000000014 0.5Q-43.90000000000001 0.5 -47.90000000000001-3.5Q-51.90000000000001-7.5 -51.90000000000001-14.8L-51.90000000000001-14.8L-51.90000000000001-46.6L-61.30000000000001-46.6L-61.30000000000001-52.6L-51.90000000000001-52.6L-51.90000000000001-64.1L-44.80000000000001-64.1L-44.80000000000001-52.6L-28.80000000000001-52.6L-28.80000000000001-46.6L-44.80000000000001-46.6L-44.80000000000001-15.2Q-44.80000000000001-10.5 -42.45000000000002-8.05Q-40.100000000000016-5.6 -35.70000000000002-5.6L-35.70000000000002-5.6Q-33.500000000000014-5.6 -31.450000000000014-6.3Q-29.400000000000013-7 -27.900000000000013-8.3L-27.900000000000013-8.3ZM 57.199999999999974-52.6L 63.699999999999974-52.6L 43.79999999999998 0L 37.09999999999998 0L 20.49999999999998-43.1L 3.899999999999981 0L-2.8000000000000185 0L-22.60000000000002-52.6L-15.80000000000002-52.6L 0.6999999999999815-7.9L 17.59999999999998-52.6L 23.69999999999998-52.6L 40.49999999999998-7.9L 57.199999999999974-52.6ZM 91.19999999999999-53Q 101.5-53  107-47.85Q 112.5-42.7  112.5-32.6L 112.5-32.6L 112.5 0L 105.69999999999999 0L 105.69999999999999-8.2Q 103.29999999999998-4.1  98.64999999999999-1.8Q 94 0.5  87.6 0.5L 87.6 0.5Q 78.8 0.5  73.6-3.7Q 68.39999999999999-7.9  68.39999999999999-14.8L 68.39999999999999-14.8Q 68.39999999999999-21.5  73.24999999999999-25.6Q 78.1-29.7  88.69999999999999-29.7L 88.69999999999999-29.7L 105.39999999999999-29.7L 105.39999999999999-32.9Q 105.39999999999999-39.7  101.6-43.25Q 97.79999999999998-46.8  90.5-46.8L 90.5-46.8Q 85.5-46.8  80.89999999999999-45.15Q 76.3-43.5  72.99999999999999-40.6L 72.99999999999999-40.6L 69.8-45.9Q 73.8-49.3  79.39999999999999-51.15Q 85-53  91.19999999999999-53L 91.19999999999999-53ZM 88.69999999999999-5.1Q 94.69999999999999-5.1  99-7.85Q 103.29999999999998-10.6  105.39999999999999-15.8L 105.39999999999999-15.8L 105.39999999999999-24.4L 88.89999999999999-24.4Q 75.39999999999999-24.4  75.39999999999999-15L 75.39999999999999-15Q 75.39999999999999-10.4  78.89999999999999-7.75Q 82.39999999999999-5.1  88.69999999999999-5.1L 88.69999999999999-5.1ZM 138.59999999999997-42.3Q 141.09999999999997-47.6  146.04999999999998-50.3Q 150.99999999999997-53  158.29999999999998-53L 158.29999999999998-53L 158.29999999999998-46.1L 156.59999999999997-46.2Q 148.29999999999998-46.2  143.59999999999997-41.1Q 138.89999999999998-36  138.89999999999998-26.8L 138.89999999999998-26.8L 138.89999999999998 0L 131.79999999999998 0L 131.79999999999998-52.6L 138.59999999999997-52.6L 138.59999999999997-42.3ZM 216.5-26.3L 216.39999999999998-24.1L 172.39999999999998-24.1Q 173-15.9  178.7-10.85Q 184.39999999999998-5.8  193.1-5.8L 193.1-5.8Q 198-5.8  202.1-7.55Q 206.2-9.3  209.2-12.7L 209.2-12.7L 213.2-8.1Q 209.7-3.9  204.45-1.7Q 199.2 0.5  192.89999999999998 0.5L 192.89999999999998 0.5Q 184.79999999999998 0.5  178.54999999999998-2.95Q 172.29999999999998-6.4  168.79999999999998-12.5Q 165.29999999999998-18.6  165.29999999999998-26.3L 165.29999999999998-26.3Q 165.29999999999998-34  168.64999999999998-40.1Q 172-46.2  177.85-49.6Q 183.7-53  191-53L 191-53Q 198.29999999999998-53  204.1-49.6Q 209.89999999999998-46.2  213.2-40.15Q 216.5-34.1  216.5-26.3L 216.5-26.3ZM 191-46.9Q 183.39999999999998-46.9  178.25-42.05Q 173.1-37.2  172.39999999999998-29.4L 172.39999999999998-29.4L 209.7-29.4Q 209-37.2  203.85-42.05Q 198.7-46.9  191-46.9L 191-46.9Z"></path></svg>